<svg version="1.0" xmlns="http://www.w3.org/2000/svg"
width="256.000000pt" height="256.000000pt" viewBox="0 0 256.000000 256.000000"
preserveAspectRatio="xMidYMid meet">

<g transform="translate(0.000000,256.000000) scale(0.100000,-0.100000)"
fill="#EBC988" stroke="none">
<path d="M674 2360 c-203 -53 -331 -176 -401 -385 -25 -73 -27 -93 -27 -240 0
-122 4 -176 17 -225 27 -97 32 -109 137 -320 145 -290 164 -352 194 -650 8
-80 22 -165 31 -190 50 -143 166 -205 274 -147 95 49 139 155 151 362 10 160
29 232 75 281 59 62 127 54 170 -20 34 -60 44 -109 55 -263 10 -154 25 -218
69 -283 84 -126 217 -131 308 -12 45 59 61 122 78 302 9 85 20 177 25 203 7
33 7 54 0 68 -13 22 -43 25 -59 5 -15 -18 -36 -147 -45 -271 -13 -170 -38
-252 -92 -294 -57 -45 -120 -16 -165 75 -28 56 -32 76 -40 205 -15 222 -49
323 -127 373 -82 53 -160 42 -233 -34 -65 -66 -88 -139 -99 -317 -11 -170 -29
-235 -80 -285 -51 -52 -89 -52 -140 0 -48 48 -66 107 -80 272 -23 264 -61 390
-199 654 -49 94 -101 210 -117 256 -26 79 -28 97 -28 245 -1 171 6 209 62 320
80 160 217 242 423 252 133 7 232 -13 314 -62 68 -42 83 -43 130 -10 71 47
142 68 260 72 190 8 316 -37 424 -152 104 -112 148 -259 138 -459 -7 -149 -33
-231 -124 -405 -58 -110 -73 -148 -66 -160 13 -21 40 -26 58 -11 29 24 154
277 181 365 25 81 27 106 28 250 1 151 -1 165 -28 249 -91 278 -304 417 -616
403 -121 -6 -174 -18 -260 -62 l-53 -27 -48 26 c-118 65 -328 85 -475 46z"/>
<path d="M589 2172 c-73 -47 -144 -147 -137 -195 5 -35 52 -35 74 0 50 81 71
106 116 135 48 31 54 42 42 72 -9 24 -45 19 -95 -12z"/>
<path d="M1345 1992 c-146 -50 -252 -163 -289 -307 -76 -288 153 -563 452
-543 42 3 95 13 116 22 21 9 41 14 45 12 4 -3 60 -92 125 -199 l117 -194 -20
-34 c-12 -19 -21 -41 -21 -50 0 -17 182 -327 227 -386 32 -44 76 -44 149 -2
104 59 102 79 -37 307 -61 101 -122 190 -135 199 -16 10 -36 14 -59 10 l-34
-6 -121 201 -121 200 51 54 c28 30 65 84 83 121 59 126 47 294 -28 413 -80
126 -218 200 -372 200 -47 -1 -98 -8 -128 -18z m287 -96 c73 -35 150 -117 177
-191 28 -75 28 -185 0 -259 -59 -158 -249 -257 -418 -216 -116 28 -221 130
-255 249 -20 69 -20 123 0 192 33 111 103 190 212 236 80 33 201 29 284 -11z
m507 -1317 l104 -171 -24 -19 c-24 -19 -58 -34 -63 -27 -1 1 -48 78 -104 171
l-101 167 37 25 c20 13 39 24 42 24 3 1 52 -76 109 -170z"/>
</g>
</svg>
