<svg version="1.0" xmlns="http://www.w3.org/2000/svg"
width="256.000000pt" height="256.000000pt" viewBox="0 0 256.000000 256.000000"
preserveAspectRatio="xMidYMid meet">
<g transform="translate(0.000000,256.000000) scale(0.100000,-0.100000)"
fill="#EBC988" stroke="none">
<path d="M427 2544 c-216 -48 -353 -156 -392 -309 -19 -75 -19 -249 -1 -375
26 -169 80 -310 185 -478 56 -90 68 -156 46 -252 -68 -301 -67 -299 -68 -475
-1 -124 4 -194 16 -258 43 -217 145 -397 223 -397 21 0 84 25 84 33 0 1 24 74
54 163 150 447 319 697 471 697 150 0 318 -245 464 -678 34 -99 61 -181 61
-182 0 -8 63 -33 84 -33 51 0 124 90 172 211 58 150 87 408 65 589 -7 52 -28
162 -47 244 -45 190 -41 226 40 361 130 213 174 359 183 605 5 125 2 167 -11
220 -83 330 -624 439 -977 197 l-35 -24 -25 20 c-36 30 -176 94 -244 113 -87
23 -264 27 -348 8z m328 -94 c70 -18 193 -75 220 -102 7 -6 -10 -28 -50 -64
-84 -78 -160 -126 -229 -144 -66 -18 -88 -39 -70 -67 16 -25 72 -27 131 -5 76
29 154 85 272 196 63 60 132 114 168 134 218 115 557 88 701 -56 72 -72 77
-93 77 -307 -1 -166 -4 -201 -24 -275 -27 -102 -72 -202 -141 -315 -87 -141
-99 -223 -55 -393 74 -293 74 -565 1 -782 -25 -72 -88 -180 -106 -180 -5 0
-21 37 -35 83 -101 325 -240 594 -366 712 -256 240 -528 11 -743 -625 -31 -91
-60 -166 -65 -168 -16 -5 -72 87 -101 166 -39 108 -60 244 -60 391 0 143 8
204 51 381 51 208 41 264 -81 470 -55 92 -80 154 -113 270 -17 63 -21 105 -21
265 -1 214 4 235 76 307 111 111 362 159 563 108z"/>
<path d="M1526 2368 c-7 -13 -16 -49 -19 -81 -13 -138 -125 -277 -222 -277
-39 0 -65 -18 -65 -43 0 -30 18 -47 50 -47 40 0 123 -44 155 -81 43 -51 74
-128 84 -207 11 -83 15 -92 45 -92 31 0 46 19 46 60 1 158 127 320 250 320 23
0 33 6 42 25 16 35 -5 54 -68 66 -118 22 -205 138 -221 292 -3 34 -10 68 -16
75 -15 19 -45 14 -61 -10z m60 -280 c15 -24 47 -62 71 -85 l44 -42 -46 -42
c-26 -24 -58 -62 -72 -86 l-25 -43 -38 59 c-21 32 -54 70 -73 85 l-35 27 45
41 c24 23 56 61 70 85 14 24 27 43 29 43 2 0 16 -19 30 -42z"/>
<path d="M1187 1562 c-10 -11 -17 -35 -17 -58 0 -34 -7 -46 -48 -87 -38 -38
-54 -47 -83 -47 -61 0 -100 -45 -67 -78 7 -7 33 -12 58 -12 41 0 50 -5 93 -48
39 -40 47 -54 47 -86 0 -49 15 -76 43 -76 33 0 47 19 47 65 0 36 6 47 53 93
46 45 58 52 93 52 45 0 64 14 64 47 0 27 -32 43 -84 43 -25 0 -42 10 -79 48
-41 41 -47 53 -47 89 0 64 -39 93 -73 55z m65 -274 l-32 -32 -35 34 -35 34 32
33 32 33 35 -35 36 -35 -33 -32z"/>
<path d="M2252 1138 c-7 -7 -12 -30 -12 -53 0 -36 -6 -47 -53 -93 -46 -45 -58
-52 -93 -52 -45 0 -64 -14 -64 -47 0 -28 27 -43 77 -43 33 0 46 -7 86 -48 42
-43 47 -52 47 -93 0 -25 5 -50 12 -57 33 -33 78 6 78 68 0 29 8 44 48 83 41
40 53 47 88 47 40 0 74 22 74 48 0 23 -33 42 -74 42 -37 0 -47 6 -89 48 -36
36 -47 55 -47 79 0 51 -16 83 -43 83 -13 0 -28 -5 -35 -12z m66 -211 l32 -33
-33 -32 -33 -32 -34 35 -34 35 29 30 c16 16 32 30 35 30 3 0 20 -15 38 -33z"/>
</g>
</svg>
